<svg version="1.1" style="font-family:&quot;Open Sans&quot;, sans-serif;font-size:12px;" xmlns="http://www.w3.org/2000/svg" width="619" height="400"><desc>Created with Highcharts 4.1.5-modified</desc><defs><clipPath id="highcharts-1"><rect x="0" y="0" width="529" height="300"></rect></clipPath></defs><rect x="0" y="0" width="619" height="400" strokeWidth="0" fill="#FFFFFF" class=" highcharts-background"></rect><g class="highcharts-grid" zIndex="1"></g><g class="highcharts-grid" zIndex="1"><path fill="none" d="M 80 350.5 L 609 350.5" stroke="#D8D8D8" stroke-width="1" stroke-dasharray="8,3" zIndex="1" opacity="1"></path><path fill="none" d="M 80 300.5 L 609 300.5" stroke="#D8D8D8" stroke-width="1" stroke-dasharray="8,3" zIndex="1" opacity="1"></path><path fill="none" d="M 80 250.5 L 609 250.5" stroke="#D8D8D8" stroke-width="1" stroke-dasharray="8,3" zIndex="1" opacity="1"></path><path fill="none" d="M 80 200.5 L 609 200.5" stroke="#D8D8D8" stroke-width="1" stroke-dasharray="8,3" zIndex="1" opacity="1"></path><path fill="none" d="M 80 150.5 L 609 150.5" stroke="#D8D8D8" stroke-width="1" stroke-dasharray="8,3" zIndex="1" opacity="1"></path><path fill="none" d="M 80 100.5 L 609 100.5" stroke="#D8D8D8" stroke-width="1" stroke-dasharray="8,3" zIndex="1" opacity="1"></path><path fill="none" d="M 80 49.5 L 609 49.5" stroke="#D8D8D8" stroke-width="1" stroke-dasharray="8,3" zIndex="1" opacity="1"></path></g><g class="highcharts-axis" zIndex="2"><path fill="none" d="M 80 350.5 L 609 350.5" stroke="#C0D0E0" stroke-width="1" zIndex="7" visibility="visible"></path></g><g class="highcharts-axis" zIndex="2"></g><path fill="none" d="M 80 300.5 L 609 300.5" stroke="#c0c0c0" stroke-width="1" zIndex="3"></path><g class="highcharts-series-group" zIndex="3"><g class="highcharts-series" visibility="visible" zIndex="0.1" transform="translate(80,50) scale(1 1)" clip-path="url(#highcharts-1)"><rect x="38" y="102" width="22" height="149" fill="#2e9ade" rx="0" ry="0"></rect><rect x="214" y="59" width="22" height="192" fill="#2e9ade" rx="0" ry="0"></rect><rect x="391" y="30" width="22" height="221" fill="#2e9ade" rx="0" ry="0"></rect></g><g class="highcharts-markers" visibility="visible" zIndex="0.1" transform="translate(80,50) scale(1 1)" clip-path="none"></g><g class="highcharts-series" visibility="visible" zIndex="0.1" transform="translate(80,50) scale(1 1)" clip-path="url(#highcharts-1)"><rect x="64" y="100" width="22" height="151" fill="#97d5fc" rx="0" ry="0"></rect><rect x="241" y="76" width="22" height="175" fill="#97d5fc" rx="0" ry="0"></rect><rect x="417" y="58" width="22" height="193" fill="#97d5fc" rx="0" ry="0"></rect></g><g class="highcharts-markers" visibility="visible" zIndex="0.1" transform="translate(80,50) scale(1 1)" clip-path="none"></g><g class="highcharts-series" visibility="visible" zIndex="0.1" transform="translate(80,50) scale(1 1)" clip-path="url(#highcharts-1)"><rect x="91" y="251" width="22" height="0" fill="#5dbb7d" rx="0" ry="0"></rect><rect x="267" y="234" width="22" height="17" fill="#5dbb7d" rx="0" ry="0"></rect><rect x="443" y="223" width="22" height="28" fill="#5dbb7d" rx="0" ry="0"></rect></g><g class="highcharts-markers" visibility="visible" zIndex="0.1" transform="translate(80,50) scale(1 1)" clip-path="none"></g><g class="highcharts-series" visibility="visible" zIndex="0.1" transform="translate(80,50) scale(1 1)" clip-path="url(#highcharts-1)"><rect x="117" y="251" width="22" height="2" fill="#ee6e59" rx="0" ry="0"></rect><rect x="294" y="251" width="22" height="0" fill="#ee6e59" rx="0" ry="0"></rect><rect x="470" y="251" width="22" height="0" fill="#ee6e59" rx="0" ry="0"></rect></g><g class="highcharts-markers" visibility="visible" zIndex="0.1" transform="translate(80,50) scale(1 1)" clip-path="none"></g></g><g class="highcharts-legend" zIndex="7" transform="translate(10,10)"><g zIndex="1"><g><g class="highcharts-legend-item" zIndex="1" transform="translate(8,3)"><text x="21" style="color:#3E576F;font-size:12px;font-weight:bold;cursor:default;fill:#3E576F;" text-anchor="start" zIndex="2" y="15">Revenue</text><rect x="0" y="4" width="16" height="12" zIndex="3" fill="#2e9ade"></rect></g><g class="highcharts-legend-item" zIndex="1" transform="translate(102.5999984741211,3)"><text x="21" y="15" style="color:#3E576F;font-size:12px;font-weight:bold;cursor:default;fill:#3E576F;" text-anchor="start" zIndex="2"><tspan>Expenses &amp; Costs</tspan></text><rect x="0" y="4" width="16" height="12" zIndex="3" fill="#97d5fc"></rect></g><g class="highcharts-legend-item" zIndex="1" transform="translate(248.13333129882812,3)"><text x="21" y="15" style="color:#3E576F;font-size:12px;font-weight:bold;cursor:default;fill:#3E576F;" text-anchor="start" zIndex="2"><tspan>Net profit</tspan></text><rect x="0" y="4" width="16" height="12" zIndex="3" fill="#5dbb7d"></rect></g><g class="highcharts-legend-item" zIndex="1" transform="translate(350.1333312988281,3)"><text x="21" y="15" style="color:#3E576F;font-size:12px;font-weight:bold;cursor:default;fill:#3E576F;" text-anchor="start" zIndex="2"><tspan>Net loss</tspan></text><rect x="0" y="4" width="16" height="12" zIndex="3" fill="#ee6e59"></rect></g></g></g></g><g class="highcharts-axis-labels highcharts-xaxis-labels" zIndex="7"><text x="168.16666666666669" style="color:#606060;cursor:default;font-size:11px;fill:#606060;width:166px;text-overflow:clip;" text-anchor="middle" transform="translate(0,0)" y="369" opacity="1">2020</text><text x="344.5" style="color:#606060;cursor:default;font-size:11px;fill:#606060;width:166px;text-overflow:clip;" text-anchor="middle" transform="translate(0,0)" y="369" opacity="1">2021</text><text x="520.8333333333334" style="color:#606060;cursor:default;font-size:11px;fill:#606060;width:166px;text-overflow:clip;" text-anchor="middle" transform="translate(0,0)" y="369" opacity="1">2022</text></g><g class="highcharts-axis-labels highcharts-yaxis-labels" zIndex="7"><text x="75" style="color:#606060;cursor:default;font-size:11px;font-family:&quot;Open Sans&quot;, &quot;Lucida Grande&quot;, &quot;Lucida Sans Unicode&quot;, Arial, Helvetica, sans-serif;fill:#606060;width:60px;text-overflow:clip;" text-anchor="end" transform="translate(0,0)" y="353" opacity="1">($100K)</text><text x="75" style="color:#606060;cursor:default;font-size:11px;font-family:&quot;Open Sans&quot;, &quot;Lucida Grande&quot;, &quot;Lucida Sans Unicode&quot;, Arial, Helvetica, sans-serif;fill:#606060;width:60px;text-overflow:clip;" text-anchor="end" transform="translate(0,0)" y="303" opacity="1">$0</text><text x="75" style="color:#606060;cursor:default;font-size:11px;font-family:&quot;Open Sans&quot;, &quot;Lucida Grande&quot;, &quot;Lucida Sans Unicode&quot;, Arial, Helvetica, sans-serif;fill:#606060;width:60px;text-overflow:clip;" text-anchor="end" transform="translate(0,0)" y="253" opacity="1">$100K</text><text x="75" style="color:#606060;cursor:default;font-size:11px;font-family:&quot;Open Sans&quot;, &quot;Lucida Grande&quot;, &quot;Lucida Sans Unicode&quot;, Arial, Helvetica, sans-serif;fill:#606060;width:60px;text-overflow:clip;" text-anchor="end" transform="translate(0,0)" y="203" opacity="1">$200K</text><text x="75" style="color:#606060;cursor:default;font-size:11px;font-family:&quot;Open Sans&quot;, &quot;Lucida Grande&quot;, &quot;Lucida Sans Unicode&quot;, Arial, Helvetica, sans-serif;fill:#606060;width:60px;text-overflow:clip;" text-anchor="end" transform="translate(0,0)" y="153" opacity="1">$300K</text><text x="75" style="color:#606060;cursor:default;font-size:11px;font-family:&quot;Open Sans&quot;, &quot;Lucida Grande&quot;, &quot;Lucida Sans Unicode&quot;, Arial, Helvetica, sans-serif;fill:#606060;width:60px;text-overflow:clip;" text-anchor="end" transform="translate(0,0)" y="103" opacity="1">$400K</text><text x="75" style="color:#606060;cursor:default;font-size:11px;font-family:&quot;Open Sans&quot;, &quot;Lucida Grande&quot;, &quot;Lucida Sans Unicode&quot;, Arial, Helvetica, sans-serif;fill:#606060;width:60px;text-overflow:clip;" text-anchor="end" transform="translate(0,0)" y="53" opacity="1">$500K</text></g><g class="highcharts-tooltip" zIndex="8" style="cursor:default;padding:0;white-space:nowrap;" transform="translate(0,-9999)"><path fill="none" d="M 3 0 L 13 0 C 16 0 16 0 16 3 L 16 13 C 16 16 16 16 13 16 L 3 16 C 0 16 0 16 0 13 L 0 3 C 0 0 0 0 3 0" isShadow="true" stroke="black" stroke-opacity="0.049999999999999996" stroke-width="5" transform="translate(1, 1)"></path><path fill="none" d="M 3 0 L 13 0 C 16 0 16 0 16 3 L 16 13 C 16 16 16 16 13 16 L 3 16 C 0 16 0 16 0 13 L 0 3 C 0 0 0 0 3 0" isShadow="true" stroke="black" stroke-opacity="0.09999999999999999" stroke-width="3" transform="translate(1, 1)"></path><path fill="none" d="M 3 0 L 13 0 C 16 0 16 0 16 3 L 16 13 C 16 16 16 16 13 16 L 3 16 C 0 16 0 16 0 13 L 0 3 C 0 0 0 0 3 0" isShadow="true" stroke="black" stroke-opacity="0.15" stroke-width="1" transform="translate(1, 1)"></path><path fill="#FFFFFF" d="M 3 0 L 13 0 C 16 0 16 0 16 3 L 16 13 C 16 16 16 16 13 16 L 3 16 C 0 16 0 16 0 13 L 0 3 C 0 0 0 0 3 0"></path><text x="8" zIndex="1" style="font-size:12px;color:#333333;fill:#333333;" transform="translate(0,20)"></text></g></svg>